<?xml version="1.0" encoding="UTF-8"?>
<!DOCTYPE svg PUBLIC "-//W3C//DTD SVG 1.1//EN" "http://www.w3.org/Graphics/SVG/1.1/DTD/svg11.dtd">
<!-- Creator: CorelDRAW -->
<svg xmlns="http://www.w3.org/2000/svg" xml:space="preserve" width="2.4417in" height="1.49324in" version="1.1" style="shape-rendering:geometricPrecision; text-rendering:geometricPrecision; image-rendering:optimizeQuality; fill-rule:evenodd; clip-rule:evenodd"
viewBox="0 0 2441.64 1493.2"
 xmlns:xlink="http://www.w3.org/1999/xlink"
 xmlns:xodm="http://www.corel.com/coreldraw/odm/2003">
 <defs>
  <style type="text/css">
   <![CDATA[
    .fil1 {fill:#008DE1}
    .fil0 {fill:white}
   ]]>
  </style>
 </defs>
 <g id="Layer_x0020_1">
  <metadata id="CorelCorpID_0Corel-Layer"/>
  <g id="_2499966221184">
   <path class="fil0" d="M57.73 597.09l489.64 0c4.57,-22.45 10.12,-44.49 16.61,-66.07 10.81,-35.86 24.31,-70.72 40.24,-104.25l13.64 -28.71 667.81 0 -33.86 71.27c-13.7,28.84 -25.37,59 -34.77,90.2 -9.26,30.75 -16.31,62.36 -20.91,94.58l-6.15 42.97 -1189.99 0 57.73 -99.99zm506.25 365.06c-6.49,-21.57 -12.05,-43.61 -16.61,-66.04l-489.63 0 -57.73 -99.99 1189.99 0 6.15 42.97c4.6,32.21 11.64,63.81 20.9,94.54 9.4,31.22 21.07,61.36 34.78,90.23l33.84 71.28 -667.8 0 -13.63 -28.71c-15.93,-33.55 -29.44,-68.4 -40.25,-104.28z"/>
   <path class="fil1" d="M2399.26 995.16c-102.95,291.69 -381.06,499.35 -708.19,498.03l-415.68 0c-98.39,-0.45 -192.38,-20 -278.39,-55.12 -83.76,-34.19 -160,-83.26 -225.42,-143.91l-511.83 0 -57.73 -99.99 1146.72 0.02c14.92,0 28.32,6.54 37.48,16.92 37.92,36.75 80.39,68.92 126.49,95.58 56.34,32.58 120.89,32.61 177.26,0.06 39.79,-22.98 76.87,-50.04 110.6,-80.59 42.43,-38.43 79.76,-82.49 110.82,-131.01l-215.29 0 -57.73 -99.99 760.9 0.02zm-487.28 -596.17l-219.4 0 -54.22 99.05 760.9 0c-102.4,-290.14 -379.03,-498.04 -704.22,-498.04l-416.16 0c-99.64,0 -194.84,19.59 -281.87,55.12 -83.75,34.18 -159.99,83.25 -225.43,143.91l-511.84 0 -57.72 99.98 1146.72 0c14.92,0 28.32,-6.54 37.48,-16.92 37.92,-36.75 80.39,-68.92 126.49,-95.58 56.34,-32.59 120.89,-32.61 177.26,-0.06 39.79,22.98 76.87,50.04 110.6,80.59 42.7,38.67 80.24,83.05 111.42,131.94zm528.03 298.08l-801.65 0 0 99.05 801.65 0c1.07,-16.37 1.62,-32.89 1.62,-49.53 0,-16.64 -0.54,-33.15 -1.62,-49.52z"/>
  </g>
 </g>
</svg>
