<?xml version="1.0" encoding="UTF-8"?>
<!DOCTYPE svg PUBLIC "-//W3C//DTD SVG 1.1//EN" "http://www.w3.org/Graphics/SVG/1.1/DTD/svg11.dtd">
<!-- Creator: CorelDRAW -->
<svg xmlns="http://www.w3.org/2000/svg" xml:space="preserve" width="4.97917in" height="1.09273in" version="1.1" style="shape-rendering:geometricPrecision; text-rendering:geometricPrecision; image-rendering:optimizeQuality; fill-rule:evenodd; clip-rule:evenodd"
viewBox="0 0 4979.11 1092.72"
 xmlns:xlink="http://www.w3.org/1999/xlink"
 xmlns:xodm="http://www.corel.com/coreldraw/odm/2003">
 <defs>
  <style type="text/css">
   <![CDATA[
    .fil0 {fill:#003484}
    .fil1 {fill:#008DE1}
    .fil2 {fill:#003484;fill-rule:nonzero}
   ]]>
  </style>
 </defs>
 <g id="Layer_x0020_1">
  <metadata id="CorelCorpID_0Corel-Layer"/>
  <g id="_2499966255648">
   <g>
    <path class="fil0" d="M42.24 436.95l358.31 0c3.35,-16.43 7.41,-32.56 12.16,-48.35 7.91,-26.24 17.79,-51.75 29.45,-76.29l9.98 -21.01 488.7 0 -24.78 52.16c-10.03,21.1 -18.56,43.17 -25.44,66 -6.78,22.5 -11.93,45.63 -15.3,69.21l-4.5 31.44 -870.83 0 42.24 -73.17zm370.47 267.15c-4.75,-15.78 -8.82,-31.91 -12.16,-48.33l-358.31 0 -42.25 -73.18 870.83 0 4.5 31.44c3.37,23.57 8.52,46.69 15.3,69.19 6.88,22.85 15.42,44.91 25.45,66.03l24.77 52.16 -488.7 0 -9.98 -21.01c-11.66,-24.55 -21.54,-50.05 -29.45,-76.31z"/>
    <path class="fil1" d="M1755.78 728.25c-75.34,213.46 -278.86,365.43 -518.25,364.46l-304.19 0c-72,-0.33 -140.78,-14.64 -203.73,-40.33 -61.29,-25.02 -117.08,-60.93 -164.96,-105.31l-374.56 0 -42.25 -73.18 839.17 0.01c10.92,0 20.72,4.78 27.43,12.38 27.75,26.89 58.83,50.43 92.56,69.94 41.23,23.84 88.46,23.86 129.72,0.05 29.12,-16.81 56.26,-36.62 80.94,-58.98 31.05,-28.12 58.37,-60.36 81.1,-95.87l-157.55 0 -42.24 -73.18 556.82 0.01zm-356.59 -436.27l-160.56 0 -39.67 72.49 556.82 0c-74.94,-212.32 -277.38,-364.46 -515.35,-364.46l-304.54 0c-72.92,0 -142.59,14.34 -206.28,40.34 -61.28,25.01 -117.08,60.92 -164.97,105.31l-374.57 0 -42.24 73.16 839.17 0c10.92,0 20.72,-4.78 27.43,-12.38 27.75,-26.89 58.83,-50.43 92.56,-69.94 41.23,-23.85 88.46,-23.86 129.72,-0.04 29.12,16.81 56.26,36.62 80.94,58.98 31.25,28.3 58.72,60.77 81.54,96.55zm386.41 218.14l-586.65 0 0 72.49 586.65 0c0.79,-11.98 1.19,-24.07 1.19,-36.25 0,-12.18 -0.4,-24.26 -1.19,-36.24z"/>
   </g>
   <path class="fil2" d="M2527.82 735.97l0 -69.44c0,-3.81 0.16,-10.94 0.48,-21.41 0.32,-10.46 1.11,-23.3 2.38,-38.52l2.85 -58.98 -192.14 0c6.34,10.78 11.57,20.29 15.7,28.54 4.12,8.24 7.45,16.49 9.98,24.73 2.54,8.24 4.12,16.81 4.76,25.68 0.63,8.88 0.95,19.34 0.95,31.39l0 119.85c-10.15,5.71 -18.39,9.67 -24.73,11.89 -6.34,2.22 -13.63,3.33 -21.88,3.33 -15.85,0 -31.07,-2.7 -45.66,-8.09 -14.59,-5.39 -27.27,-13.16 -38.05,-23.3 -20.29,-18.39 -36.46,-46.45 -48.51,-84.18 -12.05,-37.73 -18.07,-79.11 -18.07,-124.13 0,-40.59 4.91,-79.11 14.74,-115.57 9.83,-36.46 22.98,-64.53 39.47,-84.18 13.95,-16.49 31.07,-29.17 51.37,-38.05 20.29,-8.88 42.49,-13.32 66.58,-13.32 32.34,0 59.61,5.55 81.8,16.65 22.2,11.1 41.86,28.7 58.98,52.79l0 -135.07c-22.19,-6.98 -41.53,-11.73 -58.02,-14.27 -11.76,-1.81 -24.82,-2.98 -39.17,-3.5 -5.76,-0.2 -11.72,-0.31 -17.9,-0.31 -5.7,0 -11.34,0.11 -16.95,0.31 -46.17,1.71 -89.2,10.49 -129.07,26.33 -44.7,17.75 -83.55,42.33 -116.52,73.72 -32.98,31.39 -58.82,68.49 -77.53,111.29 -18.7,42.81 -28.06,89.25 -28.06,139.35 0,45.02 7.77,86.09 23.3,123.18 15.54,37.1 37.57,68.81 66.11,95.12 28.54,26.32 62.62,46.77 102.26,61.35 39.63,14.59 83.55,21.88 131.74,21.88 20.29,0 38.68,-0.95 55.17,-2.85 16.49,-1.9 32.66,-5.07 48.52,-9.51 15.85,-4.44 31.55,-10.3 47.08,-17.59 15.54,-7.3 32.5,-16.33 50.89,-27.11 -1.27,-19.02 -2.06,-33.92 -2.38,-44.71 -0.31,-10.78 -0.48,-21.88 -0.48,-33.29zm221.64 -99.88l27.59 85.61 147.44 0 26.63 82.75c1.9,5.71 3.65,11.26 5.23,16.65 1.59,5.39 3.01,10.63 4.28,15.7l1.9 27.59 193.1 0c-6.98,-13.32 -11.89,-23.3 -14.74,-29.96 -2.85,-6.66 -5.87,-13.48 -9.04,-20.45 -5.08,-12.68 -10.78,-27.74 -17.13,-45.18 -6.34,-17.44 -13.95,-37.26 -22.83,-59.45l-167.41 -480.36 -175.97 0c6.97,12.05 12.05,21.88 15.22,29.49 3.17,7.61 4.75,14.59 4.75,20.92 0,10.78 -3.48,26.64 -10.46,47.56l-123.66 368.12c-5.07,13.95 -9.51,26.48 -13.31,37.57 -3.81,11.09 -7.93,22.83 -12.37,35.19 -4.44,12.37 -9.35,26.16 -14.74,41.38 -5.39,15.22 -12.2,33.61 -20.45,55.17l125.56 0c-1.9,-8.24 -3.33,-14.59 -4.28,-19.03 -0.95,-4.44 -1.43,-9.19 -1.43,-14.26 0,-9.52 1.27,-18.07 3.81,-25.68l27.59 -83.71 24.73 -85.61zm70.39 -235.9l77.05 235.9 -147.44 0 70.39 -235.9zm656.34 255.88c6.34,5.7 11.57,13.47 15.69,23.3 4.13,9.83 6.18,19.18 6.18,28.06 0,24.1 -10.94,43.91 -32.81,59.45 -21.88,15.54 -49.31,23.3 -82.28,23.3 -15.85,0 -31.07,-1.27 -45.66,-3.8 -14.59,-2.54 -29.17,-6.66 -43.76,-12.37 -14.59,-5.71 -29.81,-13.16 -45.66,-22.35 -15.85,-9.2 -32.66,-20.45 -50.42,-33.77l0 117.95c28.54,12.68 59.77,22.2 93.7,28.54 33.33,6.23 66.82,9.4 100.47,9.51l1.79 0 1.37 0c33.76,-0.14 66.6,-5.53 98.51,-16.17 32.34,-10.78 60.56,-25.68 84.66,-44.71 45.66,-36.15 68.49,-83.71 68.49,-142.68 0,-32.98 -8.24,-64.05 -24.73,-93.22 -24.73,-41.22 -90.05,-81.81 -195.95,-121.75 -58.34,-21.56 -87.51,-48.83 -87.51,-81.81 0,-19.02 8.88,-34.4 26.64,-46.13 17.75,-11.73 41.53,-17.6 71.34,-17.6 13.32,0 26,0.95 38.05,2.85 12.05,1.9 23.78,4.76 35.2,8.56 11.41,3.8 23.15,8.88 35.19,15.22 12.05,6.34 25.05,14.27 39,23.78l0 -117c-10.78,-3.8 -20.92,-7.13 -30.44,-9.99 -9.52,-2.85 -19.02,-5.07 -28.54,-6.66 -9.52,-1.59 -19.5,-2.7 -29.96,-3.33 -10.47,-0.63 -21.72,-0.95 -33.77,-0.95 -37.41,0 -72.29,5.07 -104.63,15.22 -32.34,10.14 -60.56,24.1 -84.66,41.85 -24.1,17.76 -43.12,38.52 -57.07,62.31 -13.95,23.78 -20.92,49.31 -20.92,76.57 0,33.61 14.9,66.27 44.7,97.98 7.61,7.61 14.27,13.95 19.98,19.02 5.7,5.07 12.37,9.99 19.98,14.74 7.61,4.76 17.12,10.15 28.54,16.17 11.41,6.03 26.63,13.48 45.66,22.35 26,12.68 46.29,22.35 60.88,29.01 14.59,6.66 25.68,12.21 33.29,16.65 7.61,4.44 13.16,8.09 16.65,10.94 3.48,2.85 7.77,6.5 12.84,10.94zm504.62 -10.94c3.49,2.85 7.77,6.5 12.84,10.94 6.34,5.7 11.57,13.47 15.69,23.3 4.12,9.83 6.18,19.18 6.18,28.06 0,24.1 -10.94,43.91 -32.81,59.45 -21.88,15.54 -49.31,23.3 -82.28,23.3 -15.85,0 -31.07,-1.27 -45.66,-3.8 -14.59,-2.54 -29.17,-6.66 -43.76,-12.37 -14.59,-5.71 -29.81,-13.16 -45.66,-22.35 -15.85,-9.2 -32.66,-20.45 -50.42,-33.77l0 117.95c28.54,12.68 59.77,22.2 93.7,28.54 33.34,6.23 66.83,9.4 100.47,9.51l1.79 0 1.37 0c33.76,-0.14 66.6,-5.53 98.51,-16.17 32.34,-10.78 60.56,-25.68 84.66,-44.71 45.66,-36.15 68.49,-83.71 68.49,-142.68 0,-32.98 -8.25,-64.05 -24.74,-93.22 -24.73,-41.22 -90.05,-81.81 -195.95,-121.75 -58.34,-21.56 -87.51,-48.83 -87.51,-81.81 0,-19.02 8.88,-34.4 26.63,-46.13 17.76,-11.73 41.54,-17.6 71.34,-17.6 13.32,0 26,0.95 38.05,2.85 12.05,1.9 23.78,4.76 35.19,8.56 11.42,3.8 23.15,8.88 35.2,15.22 12.05,6.34 25.05,14.27 39,23.78l0 -117c-10.78,-3.8 -20.92,-7.13 -30.44,-9.99 -9.51,-2.85 -19.02,-5.07 -28.54,-6.66 -9.51,-1.59 -19.5,-2.7 -29.96,-3.33 -10.46,-0.63 -21.72,-0.95 -33.77,-0.95 -37.42,0 -72.29,5.07 -104.63,15.22 -32.34,10.14 -60.56,24.1 -84.66,41.85 -24.1,17.76 -43.12,38.52 -57.07,62.31 -13.95,23.78 -20.92,49.31 -20.92,76.57 0,33.61 14.9,66.27 44.71,97.98 7.61,7.61 14.27,13.95 19.98,19.02 5.7,5.07 12.37,9.99 19.98,14.74 7.61,4.76 17.12,10.15 28.54,16.17 11.41,6.03 26.63,13.48 45.66,22.35 26,12.68 46.29,22.35 60.88,29.01 14.58,6.66 25.68,12.21 33.29,16.65 7.61,4.44 13.16,8.09 16.65,10.94zm284.89 -287.74l0 327.22 0 60.4c0,15.54 -0.31,29.17 -0.95,40.9l-1.9 35.19c-0.63,11.73 -1.9,26.16 -3.81,43.28l197.86 0c-7.61,-11.42 -13.63,-21.4 -18.07,-29.96 -4.44,-8.56 -7.93,-16.81 -10.46,-24.73 -2.54,-7.93 -4.28,-16.02 -5.24,-24.26 -0.95,-8.24 -1.43,-17.76 -1.43,-28.54l0 -374.78 0 -37.1c0,-11.42 0.32,-22.99 0.95,-34.72 0.63,-11.73 1.27,-23.94 1.9,-36.62 0.63,-12.68 1.59,-27.27 2.85,-43.76l-195.95 0c6.97,13.31 12.68,25.05 17.12,35.19 4.44,10.15 7.93,19.82 10.46,29.01 2.54,9.2 4.28,18.71 5.23,28.54 0.95,9.83 1.43,21.4 1.43,34.72zm396.66 -37.1l0 416.63 0 36.62c0,10.46 -0.32,20.45 -0.95,29.96 -0.64,9.51 -1.27,19.18 -1.91,29.01 -0.63,9.83 -1.27,20.77 -1.9,32.81l196.9 0c-7.61,-9.51 -13.95,-19.66 -19.02,-30.44 -5.07,-10.78 -9.04,-23.3 -11.89,-37.57 -2.85,-14.27 -4.76,-31.23 -5.7,-50.89 -0.95,-19.66 -1.43,-43.76 -1.43,-72.29l0 -353.85 75.14 0 22.83 0c6.98,0 13.79,0.31 20.45,0.95 6.66,0.63 13.47,1.27 20.45,1.9 6.97,0.64 14.9,1.59 23.78,2.85l0 -69.2 0 -26.87 -476.56 0 0 95.12c13.95,-1.26 24.89,-2.22 32.82,-2.85 7.93,-0.63 14.11,-1.11 18.55,-1.43 4.44,-0.32 7.93,-0.48 10.46,-0.48l8.56 0 89.42 0z"/>
  </g>
 </g>
</svg>
