<?xml version="1.0" encoding="UTF-8"?>
<!DOCTYPE svg PUBLIC "-//W3C//DTD SVG 1.1//EN" "http://www.w3.org/Graphics/SVG/1.1/DTD/svg11.dtd">
<!-- Creator: CorelDRAW -->
<svg xmlns="http://www.w3.org/2000/svg" xml:space="preserve" width="3.1147in" height="2.06031in" version="1.1" style="shape-rendering:geometricPrecision; text-rendering:geometricPrecision; image-rendering:optimizeQuality; fill-rule:evenodd; clip-rule:evenodd"
viewBox="0 0 3114.64 2060.27"
 xmlns:xlink="http://www.w3.org/1999/xlink"
 xmlns:xodm="http://www.corel.com/coreldraw/odm/2003">
 <defs>
  <style type="text/css">
   <![CDATA[
    .fil2 {fill:#008DE1}
    .fil1 {fill:white}
    .fil0 {fill:white;fill-rule:nonzero}
   ]]>
  </style>
 </defs>
 <g id="Layer_x0020_1">
  <metadata id="CorelCorpID_0Corel-Layer"/>
  <g id="_2503062154368">
   <g>
    <path class="fil0" d="M547.01 1915.8l0 -72.73c0,-3.99 0.17,-11.46 0.5,-22.42 0.33,-10.96 1.16,-24.41 2.49,-40.35l2.99 -61.77 -201.26 0c6.64,11.3 12.12,21.26 16.44,29.89 4.31,8.63 7.81,17.27 10.46,25.91 2.66,8.64 4.32,17.6 4.98,26.91 0.66,9.3 1,20.26 1,32.88l0 125.54c-10.63,5.98 -19.26,10.13 -25.91,12.46 -6.65,2.32 -14.28,3.49 -22.92,3.49 -16.6,0 -32.55,-2.82 -47.82,-8.47 -15.28,-5.65 -28.56,-13.78 -39.85,-24.41 -21.26,-19.26 -38.2,-48.66 -50.81,-88.18 -12.63,-39.52 -18.93,-82.86 -18.93,-130.03 0,-42.51 5.15,-82.86 15.44,-121.06 10.3,-38.2 24.08,-67.59 41.35,-88.18 14.62,-17.27 32.55,-30.55 53.81,-39.85 21.26,-9.3 44.51,-13.95 69.75,-13.95 33.87,0 62.44,5.81 85.68,17.44 23.25,11.62 43.84,30.05 61.77,55.29l0 -141.48c-23.25,-7.31 -43.5,-12.29 -60.77,-14.94 -12.33,-1.9 -26,-3.12 -41.03,-3.66 -6.03,-0.22 -12.28,-0.33 -18.75,-0.33 -5.96,0 -11.88,0.11 -17.75,0.33 -48.37,1.8 -93.43,10.99 -135.19,27.57 -46.83,18.6 -87.51,44.34 -122.05,77.22 -34.55,32.88 -61.61,71.73 -81.21,116.57 -19.59,44.84 -29.39,93.49 -29.39,145.97 0,47.16 8.14,90.17 24.41,129.03 16.28,38.86 39.36,72.07 69.25,99.63 29.89,27.57 65.59,48.99 107.11,64.27 41.52,15.28 87.51,22.92 138,22.92 21.26,0 40.52,-1 57.79,-2.99 17.27,-1.99 34.21,-5.31 50.81,-9.96 16.61,-4.65 33.05,-10.79 49.32,-18.43 16.28,-7.64 34.05,-17.11 53.31,-28.4 -1.33,-19.92 -2.16,-35.53 -2.49,-46.83 -0.33,-11.29 -0.5,-22.91 -0.5,-34.87zm232.15 -104.62l28.89 89.67 154.44 0 27.9 86.68c1.99,5.98 3.82,11.79 5.48,17.44 1.66,5.65 3.15,11.13 4.48,16.44l1.99 28.9 202.26 0c-7.31,-13.95 -12.46,-24.41 -15.44,-31.39 -2.99,-6.98 -6.15,-14.12 -9.46,-21.42 -5.31,-13.28 -11.29,-29.06 -17.94,-47.33 -6.64,-18.27 -14.61,-39.02 -23.91,-62.27l-175.36 -503.17 -184.33 0c7.31,12.62 12.62,22.92 15.94,30.89 3.32,7.97 4.98,15.28 4.98,21.92 0,11.29 -3.65,27.9 -10.96,49.82l-129.53 385.6c-5.31,14.61 -9.96,27.73 -13.95,39.36 -3.98,11.62 -8.3,23.91 -12.96,36.87 -4.65,12.95 -9.8,27.4 -15.44,43.34 -5.65,15.94 -12.79,35.2 -21.42,57.79l131.53 0c-1.99,-8.64 -3.49,-15.28 -4.48,-19.93 -1,-4.65 -1.5,-9.63 -1.5,-14.94 0,-9.96 1.33,-18.93 3.99,-26.9l28.89 -87.68 25.91 -89.67zm73.73 -247.1l80.71 247.1 -154.44 0 73.73 -247.1zm687.49 268.02c6.64,5.98 12.12,14.11 16.44,24.41 4.32,10.3 6.48,20.09 6.48,29.39 0,25.24 -11.46,46 -34.37,62.27 -22.91,16.27 -51.64,24.41 -86.19,24.41 -16.6,0 -32.55,-1.33 -47.82,-3.98 -15.28,-2.65 -30.55,-6.97 -45.83,-12.95 -15.28,-5.98 -31.22,-13.78 -47.83,-23.41 -16.61,-9.63 -34.21,-21.42 -52.81,-35.37l0 123.55c29.89,13.29 62.61,23.25 98.14,29.89 34.92,6.53 70,9.85 105.24,9.96l1.87 0 1.44 0c35.36,-0.15 69.75,-5.8 103.18,-16.94 33.88,-11.29 63.44,-26.9 88.68,-46.83 47.83,-37.87 71.74,-87.68 71.74,-149.46 0,-34.54 -8.63,-67.09 -25.91,-97.64 -25.91,-43.17 -94.32,-85.69 -205.25,-127.53 -61.11,-22.59 -91.67,-51.15 -91.67,-85.69 0,-19.92 9.3,-36.03 27.9,-48.32 18.6,-12.29 43.51,-18.43 74.73,-18.43 13.95,0 27.23,1 39.86,2.99 12.62,1.99 24.91,4.98 36.87,8.97 11.96,3.98 24.24,9.3 36.87,15.94 12.62,6.65 26.24,14.95 40.85,24.91l0 -122.55c-11.29,-3.99 -21.92,-7.48 -31.89,-10.46 -9.96,-2.99 -19.92,-5.31 -29.89,-6.97 -9.96,-1.67 -20.43,-2.83 -31.39,-3.49 -10.96,-0.66 -22.75,-0.99 -35.37,-0.99 -39.19,0 -75.72,5.31 -109.6,15.94 -33.88,10.63 -63.44,25.24 -88.68,43.84 -25.24,18.6 -45.17,40.35 -59.78,65.26 -14.61,24.91 -21.92,51.65 -21.92,80.21 0,35.21 15.61,69.42 46.83,102.63 7.97,7.97 14.95,14.61 20.92,19.93 5.98,5.31 12.95,10.46 20.92,15.44 7.97,4.98 17.93,10.63 29.89,16.94 11.96,6.31 27.9,14.11 47.83,23.41 27.24,13.28 48.49,23.41 63.77,30.39 15.28,6.98 26.9,12.79 34.87,17.44 7.97,4.65 13.78,8.47 17.44,11.46 3.65,2.99 8.14,6.81 13.45,11.46zm528.57 -11.46c3.65,2.99 8.14,6.81 13.45,11.46 6.64,5.98 12.12,14.11 16.44,24.41 4.32,10.3 6.48,20.09 6.48,29.39 0,25.24 -11.46,46 -34.37,62.27 -22.92,16.27 -51.65,24.41 -86.19,24.41 -16.61,0 -32.55,-1.33 -47.83,-3.98 -15.28,-2.65 -30.55,-6.97 -45.83,-12.95 -15.28,-5.98 -31.22,-13.78 -47.83,-23.41 -16.61,-9.63 -34.21,-21.42 -52.81,-35.37l0 123.55c29.89,13.29 62.61,23.25 98.15,29.89 34.92,6.53 69.99,9.85 105.23,9.96l1.87 0 1.44 0c35.36,-0.15 69.76,-5.8 103.18,-16.94 33.87,-11.29 63.43,-26.9 88.68,-46.83 47.82,-37.87 71.74,-87.68 71.74,-149.46 0,-34.54 -8.64,-67.09 -25.91,-97.64 -25.91,-43.17 -94.32,-85.69 -205.25,-127.53 -61.11,-22.59 -91.66,-51.15 -91.66,-85.69 0,-19.92 9.3,-36.03 27.9,-48.32 18.6,-12.29 43.51,-18.43 74.73,-18.43 13.95,0 27.24,1 39.86,2.99 12.62,1.99 24.91,4.98 36.87,8.97 11.96,3.98 24.24,9.3 36.87,15.94 12.62,6.65 26.24,14.95 40.85,24.91l0 -122.55c-11.29,-3.99 -21.92,-7.48 -31.89,-10.46 -9.96,-2.99 -19.92,-5.31 -29.89,-6.97 -9.96,-1.67 -20.42,-2.83 -31.39,-3.49 -10.96,-0.66 -22.75,-0.99 -35.37,-0.99 -39.19,0 -75.72,5.31 -109.6,15.94 -33.88,10.63 -63.44,25.24 -88.68,43.84 -25.24,18.6 -45.17,40.35 -59.78,65.26 -14.61,24.91 -21.92,51.65 -21.92,80.21 0,35.21 15.61,69.42 46.83,102.63 7.97,7.97 14.95,14.61 20.92,19.93 5.98,5.31 12.95,10.46 20.92,15.44 7.97,4.98 17.94,10.63 29.89,16.94 11.96,6.31 27.9,14.11 47.83,23.41 27.24,13.28 48.49,23.41 63.77,30.39 15.28,6.98 26.9,12.79 34.87,17.44 7.97,4.65 13.78,8.47 17.44,11.46zm298.41 -301.4l0 342.75 0 63.27c0,16.28 -0.33,30.55 -1,42.84l-1.99 36.87c-0.67,12.29 -2,27.4 -3.99,45.34l207.24 0c-7.97,-11.96 -14.28,-22.42 -18.93,-31.39 -4.65,-8.97 -8.3,-17.61 -10.96,-25.91 -2.66,-8.3 -4.48,-16.78 -5.48,-25.41 -1,-8.64 -1.5,-18.6 -1.5,-29.89l0 -392.56 0 -38.86c0,-11.96 0.33,-24.08 1,-36.37 0.66,-12.29 1.33,-25.07 1.99,-38.36 0.66,-13.29 1.66,-28.56 2.99,-45.83l-205.25 0c7.31,13.95 13.28,26.24 17.94,36.87 4.65,10.63 8.3,20.76 10.96,30.39 2.66,9.63 4.48,19.59 5.48,29.89 1,10.3 1.5,22.42 1.5,36.37zm415.48 -38.86l0 436.41 0 38.36c0,10.96 -0.33,21.42 -1,31.39 -0.67,9.96 -1.33,20.09 -1.99,30.39 -0.67,10.3 -1.33,21.76 -1.99,34.37l206.24 0c-7.97,-9.96 -14.61,-20.59 -19.93,-31.88 -5.31,-11.29 -9.46,-24.41 -12.45,-39.36 -2.99,-14.94 -4.98,-32.71 -5.98,-53.3 -1,-20.59 -1.5,-45.83 -1.5,-75.72l0 -370.65 78.72 0 23.91 0c7.3,0 14.44,0.33 21.42,1 6.97,0.67 14.11,1.33 21.42,1.99 7.31,0.67 15.61,1.66 24.91,2.99l0 -72.49 0 -28.15 -499.18 0 0 99.64c14.61,-1.33 26.07,-2.32 34.38,-2.99 8.3,-0.67 14.78,-1.16 19.43,-1.49 4.65,-0.33 8.3,-0.5 10.96,-0.5l8.96 0 93.66 0z"/>
   </g>
   <g>
    <path class="fil1" d="M464.62 457.69l375.32 0c3.5,-17.21 7.76,-34.11 12.74,-50.64 8.29,-27.49 18.63,-54.21 30.85,-79.92l10.46 -22 511.89 0 -25.95 54.63c-10.5,22.11 -19.44,45.22 -26.65,69.14 -7.1,23.57 -12.5,47.8 -16.03,72.49l-4.71 32.94 -912.16 0 44.25 -76.64zm388.06 279.83c-4.98,-16.53 -9.24,-33.42 -12.73,-50.62l-375.32 0 -44.25 -76.65 912.16 0 4.71 32.94c3.53,24.69 8.92,48.91 16.02,72.47 7.2,23.93 16.15,47.04 26.66,69.16l25.94 54.64 -511.89 0 -10.45 -22c-12.21,-25.72 -22.56,-52.43 -30.85,-79.94z"/>
    <path class="fil2" d="M2259.49 762.82c-78.92,223.59 -292.1,382.76 -542.85,381.76l-318.63 0c-75.42,-0.35 -147.47,-15.33 -213.4,-42.26 -64.2,-26.2 -122.64,-63.82 -172.79,-110.31l-392.33 0 -44.26 -76.65 879 0.01c11.44,0 21.71,5.02 28.73,12.97 29.06,28.17 61.62,52.83 96.95,73.26 43.19,24.98 92.66,25 135.88,0.05 30.5,-17.61 58.92,-38.35 84.77,-61.77 32.53,-29.46 61.14,-63.23 84.95,-100.43l-165.03 0 -44.25 -76.64 583.26 0.01zm-373.51 -456.98l-168.18 0 -41.56 75.93 583.26 0c-78.5,-222.4 -290.54,-381.76 -539.81,-381.76l-318.99 0c-76.38,0 -149.35,15.02 -216.07,42.25 -64.2,26.2 -122.64,63.81 -172.8,110.32l-392.34 0 -44.25 76.64 879 0c11.44,0 21.71,-5.01 28.73,-12.97 29.06,-28.17 61.62,-52.82 96.95,-73.26 43.19,-24.98 92.66,-24.99 135.88,-0.05 30.5,17.61 58.92,38.36 84.77,61.78 32.73,29.64 61.51,63.66 85.41,101.13zm404.75 228.49l-614.49 0 0 75.93 614.49 0c0.83,-12.55 1.24,-25.21 1.24,-37.97 0,-12.76 -0.41,-25.41 -1.24,-37.96z"/>
   </g>
  </g>
 </g>
</svg>
